<?xml version="1.0" encoding="UTF-8"?>
<svg xmlns="http://www.w3.org/2000/svg" version="1.1" viewBox="0 0 3000 3000">
  <!-- Generator: Adobe Illustrator 28.6.0, SVG Export Plug-In . SVG Version: 1.2.0 Build 709)  -->
  <g>
    <g id="Layer_3">
      <g>
        <g>
          <path d="M2878.874,1571.198c.243,2.78.313,5.576-.062,8.341-1.125,8.278-5.008,15.981-11.116,21.832-66.761,63.762-452.212,368.957-568.563,366.753-111.892-2.076-123.316-797.79-442.974-972.88-310.585-170.144-599.105-68.222-618.659-60.995h-.026c-.103,0-1.717.512-2.127.666.154-.026.487-.103,1.102-.256-48.463,16.453-74.859,60.918-74.859,106.279,0,26.761,9.148,53.799,28.319,75.641.322.367.667.718,1.025,1.049l15.516,14.346c.181.167.366.329.556.485l70.704,58.044h0c4.718,3.878,5.954,10.591,2.928,15.896-.798,1.398-1.594,2.798-2.39,4.197-27.217,48.052-52.435,97.976-74.296,146.72l-.102.128-6.612-6.279-129.319-123.168-60.764-61.918-116.069-126.91c-4.536-4.998-7.048-11.482-7.048-18.196v-26.064c0-4.306,1.051-8.534,2.999-12.353,32.035-62.379,101.974-103.281,185.495-129.985,208.048-66.454,500.258-44.362,500.258-44.362,683.422,69.99,1305.004,750.646,1306.084,762.987Z" fill="rgba(255,255,255,1)"/>
          <path d="M1237.473,934.249s0,.026-.026.026c-.103.077-.333.154-.718.282-.077.025-.179.051-.282.102-.615.154-.948.231-1.102.256.41-.154,2.025-.666,2.127-.666Z" fill="rgba(255,255,255,1)"/>
          <path d="M1319.611,1224.948l-115.659,132.369c21.861-48.744,47.079-98.668,74.296-146.72,2.537-4.459,5.075-8.918,7.663-13.352l33.701,27.704Z" fill="rgba(255,255,255,1)"/>
        </g>
        <path d="M1830.043,1677.025c-14.531-6.125-32.24-10.738-53.716-13.301,4.1-8.739,8.124-17.478,12.019-26.166l.103-.128,6.612,6.279,34.982,33.316Z" fill="rgba(255,255,255,1)"/>
        <path d="M2115.949,1979.026v26.064c0,4.305-1.051,8.534-2.999,12.353-32.035,62.378-101.974,103.281-185.495,129.985-208.048,66.454-500.258,44.362-500.258,44.362C743.775,2121.799,122.194,1441.145,121.117,1428.792c-.231-2.768-.308-5.561.077-8.329,1.102-8.278,4.997-15.992,11.097-21.835,66.761-63.762,452.231-368.966,568.583-366.762,111.892,2.076,123.296,797.799,442.954,972.89,310.585,170.145,599.106,68.222,618.66,60.995h.026c.102,0,1.717-.512,2.127-.666-.154.026-.487.103-1.102.257,33.778-11.481,56.843-36.546,67.683-66.069,4.741-12.814,7.176-26.474,7.176-40.21,0-12.737-2.076-25.525-6.304-37.801,7.15-7.432,13.941-15.198,20.246-23.27,2.486-3.178,4.895-6.381,7.227-9.662,7.202-10.072,13.583-20.631,18.965-31.6,0,0,2.409-4.587,5.561-12.353,2.998-7.381,6.714-17.658,9.713-29.549,5.971-23.732,9.098-53.973-1.794-80.985l40.057,38.16,60.764,61.917,18.862,20.631,97.207,106.279c4.536,4.997,7.048,11.481,7.048,18.196Z" fill="rgba(255,255,255,1)"/>
        <g>
          <path d="M1488.755,1559.316s65.633-213.814-2.384-439.699c-103.178,84.931-370.452,431.549-60.918,918.481-175.885-58.739-539.341-102.076-445.543-669.403,21.092,55.997,9.38,164.404,145.388,289.058-13.941-53.383,17.734-168.914,72.476-294.184,2.025-4.639,4.075-9.277,6.176-13.941,21.861-48.744,47.079-98.668,74.296-146.72,2.537-4.459,5.075-8.918,7.663-13.352,70.221-121.272,152.82-228.576,226.295-271.657,0,0,128.96,131.856,131.318,327.013,0,37.955-11.738,153.589-154.767,314.404Z" fill="rgba(255,255,255,1)"/>
          <path d="M2022.253,1818.364c-2.178,4.203-4.459,8.38-6.868,12.558-3.563,6.202-7.33,12.353-11.379,18.504-29.319,44.618-71.758,87.314-132.83,121.502-1.153.641-2.307,1.281-3.486,1.922-13.762,7.56-28.472,14.685-44.157,21.297-53.511,22.553-118.555,39.262-197.54,47.181,0,0,120.452-43.977,198.412-125.193,7.15-7.432,13.941-15.198,20.246-23.27,2.486-3.178,4.895-6.381,7.227-9.662,7.202-10.072,13.583-20.631,18.965-31.6,0,0,2.409-4.587,5.561-12.353,2.998-7.381,6.714-17.658,9.713-29.549,5.971-23.732,9.098-53.973-1.794-80.985-8.303-20.579-24.731-39.236-54.28-51.691-14.531-6.125-32.24-10.738-53.716-13.301-4.972-.615-10.149-1.102-15.531-1.486-201.487-14.018-324.707,258.92-299.617,374.117,0,0-111.277-159.739,75.833-355.434,109.534-114.532,345.004-290.571,239.929-538.316,0,0,106.331,137.981,136.905,232.497,22.835,70.554,9.329,221.247,83.804,222.835,18.401.436,42.542-2.332,66.454-24.347,0,0,21.425,123.835-41.851,244.773Z" fill="rgba(255,255,255,1)"/>
        </g>
      </g>
    </g>
  </g>
</svg>